<svg width="24" height="24" viewBox="0 0 24 24" fill="none" xmlns="http://www.w3.org/2000/svg">
<path fill-rule="evenodd" clip-rule="evenodd" d="M19.9649 2.75C19.2735 2.75 18.713 3.3105 18.713 4.00191C18.713 4.69332 19.2735 5.25381 19.9649 5.25381C20.6563 5.25381 21.2168 4.69332 21.2168 4.00191C21.2168 3.3105 20.6563 2.75 19.9649 2.75ZM17.213 4.00191C17.213 2.48207 18.445 1.25 19.9649 1.25C21.4847 1.25 22.7168 2.48207 22.7168 4.00191C22.7168 5.52174 21.4847 6.75381 19.9649 6.75381C18.445 6.75381 17.213 5.52174 17.213 4.00191ZM2.84783 3.86976C3.88264 2.75351 5.36015 2.12703 7.11448 2.12703H14.6836C15.0978 2.12703 15.4336 2.46281 15.4336 2.87703C15.4336 3.29124 15.0978 3.62703 14.6836 3.62703H7.11448C5.73248 3.62703 4.66948 4.11113 3.94786 4.88954C3.22029 5.67436 2.78345 6.82023 2.78345 8.23451V16.6521C2.78345 18.0701 3.21294 19.2127 3.9343 19.9931C4.64905 20.7663 5.7104 21.25 7.11448 21.25H16.0754C17.4584 21.25 18.5214 20.7676 19.2427 19.9916C19.9697 19.2093 20.4064 18.0662 20.4064 16.6521V9.32126C20.4064 8.90705 20.7422 8.57126 21.1564 8.57126C21.5706 8.57126 21.9064 8.90705 21.9064 9.32126V16.6521C21.9064 18.3742 21.3708 19.9051 20.3414 21.0127C19.3062 22.1266 17.8287 22.75 16.0754 22.75H7.11448C5.3441 22.75 3.86493 22.1279 2.83279 21.0112C1.80724 19.9017 1.28345 18.3703 1.28345 16.6521V8.23451C1.28345 6.51247 1.81896 4.9796 2.84783 3.86976ZM16.8684 9.23365C17.1959 9.48735 17.2556 9.95845 17.0019 10.2859L13.9514 14.223C13.8291 14.3809 13.6487 14.4835 13.4505 14.5079C13.2522 14.5324 13.0524 14.4768 12.8953 14.3534L9.93524 12.0282L7.27995 15.4793C7.02736 15.8076 6.55647 15.8689 6.22818 15.6164C5.8999 15.3638 5.83853 14.8929 6.09112 14.5646L9.20837 10.5131C9.33046 10.3544 9.51094 10.2512 9.7096 10.2263C9.90827 10.2014 10.1086 10.257 10.2661 10.3807L13.2281 12.7074L15.8162 9.36716C16.0699 9.03973 16.541 8.97996 16.8684 9.23365Z" fill="#BBBBC4"/>
</svg>
