<svg width="24" height="24" viewBox="0 0 24 24" fill="none" xmlns="http://www.w3.org/2000/svg">
<path fill-rule="evenodd" clip-rule="evenodd" d="M2.88354 3.05377C3.96018 1.89884 5.49524 1.25 7.31429 1.25H16.6857C18.509 1.25 20.0445 1.89853 21.1204 3.05412C22.1906 4.20365 22.75 5.79384 22.75 7.58516V16.4148C22.75 18.2062 22.1906 19.7964 21.1204 20.9459C20.0445 22.1015 18.509 22.75 16.6857 22.75H7.31429C5.49096 22.75 3.9555 22.1015 2.87964 20.9459C1.80943 19.7964 1.25 18.2062 1.25 16.4148V7.58516C1.25 5.79292 1.81235 4.20285 2.88354 3.05377ZM3.98074 4.07659C3.21146 4.90181 2.75 6.10432 2.75 7.58516V16.4148C2.75 17.8966 3.20962 19.099 3.9775 19.9238C4.73974 20.7425 5.86142 21.25 7.31429 21.25H16.6857C18.1386 21.25 19.2603 20.7425 20.0225 19.9238C20.7904 19.099 21.25 17.8966 21.25 16.4148V7.58516C21.25 6.1034 20.7904 4.90101 20.0225 4.07623C19.2603 3.25751 18.1386 2.75 16.6857 2.75H7.31429C5.86666 2.75 4.74458 3.25721 3.98074 4.07659ZM12.0379 6.16908C12.4521 6.16908 12.7879 6.50486 12.7879 6.91908V17.0618C12.7879 17.476 12.4521 17.8118 12.0379 17.8118C11.6237 17.8118 11.2879 17.476 11.2879 17.0618V6.91908C11.2879 6.50486 11.6237 6.16908 12.0379 6.16908ZM7.3715 9.45169C7.78571 9.45169 8.1215 9.78748 8.1215 10.2017V17.0618C8.1215 17.476 7.78571 17.8118 7.3715 17.8118C6.95728 17.8118 6.6215 17.476 6.6215 17.0618V10.2017C6.6215 9.78748 6.95728 9.45169 7.3715 9.45169ZM16.6284 13.0767C17.0427 13.0767 17.3784 13.4125 17.3784 13.8267V17.0618C17.3784 17.476 17.0427 17.8118 16.6284 17.8118C16.2142 17.8118 15.8784 17.476 15.8784 17.0618V13.8267C15.8784 13.4125 16.2142 13.0767 16.6284 13.0767Z" fill="#BBBBC4"/>
</svg>
