<svg width="24" height="24" viewBox="0 0 24 24" fill="none" xmlns="http://www.w3.org/2000/svg">
<path d="M10.6638 2.51238C11.0309 2.18248 11.5071 1.99998 12.0008 1.99998C12.4944 1.99998 12.9706 2.18248 13.3378 2.51238L20.673 9.10338C20.8815 9.29093 21.0483 9.52024 21.1625 9.77642C21.2767 10.0326 21.3357 10.3099 21.3358 10.5904V19.9995C21.3358 20.53 21.125 21.0389 20.7499 21.414C20.3747 21.7892 19.8659 22 19.3353 22H16.0011C15.4705 22 14.9617 21.7892 14.5865 21.414C14.2114 21.0389 14.0006 20.53 14.0006 19.9995V15.3316C14.0006 15.1548 13.9304 14.9852 13.8053 14.8601C13.6802 14.735 13.5106 14.6648 13.3338 14.6648H10.6664C10.4896 14.6648 10.32 14.735 10.1949 14.8601C10.0698 14.9852 9.99959 15.1548 9.99959 15.3316V19.9995C9.99959 20.53 9.78883 21.0389 9.41366 21.414C9.03849 21.7892 8.52965 22 7.99909 22H4.66491C4.13434 22 3.62551 21.7892 3.25034 21.414C2.87517 21.0389 2.6644 20.53 2.6644 19.9995V10.5904C2.6644 10.0236 2.90447 9.48348 3.32857 9.10338L10.6638 2.51238ZM12.4455 3.50463C12.3232 3.39479 12.1645 3.33403 12.0001 3.33403C11.8357 3.33403 11.677 3.39479 11.5547 3.50463L4.21946 10.0956C4.14998 10.158 4.09436 10.2343 4.05623 10.3195C4.01809 10.4048 3.99828 10.497 3.99808 10.5904V19.9995C3.99808 20.1763 4.06833 20.3459 4.19339 20.471C4.31844 20.5961 4.48805 20.6663 4.66491 20.6663H7.99909C8.17594 20.6663 8.34556 20.5961 8.47061 20.471C8.59567 20.3459 8.66592 20.1763 8.66592 19.9995V15.3316C8.66592 14.8011 8.87669 14.2922 9.25186 13.9171C9.62702 13.5419 10.1359 13.3311 10.6664 13.3311H13.3338C13.8643 13.3311 14.3732 13.5419 14.7483 13.9171C15.1235 14.2922 15.3343 14.8011 15.3343 15.3316V19.9995C15.3343 20.1763 15.4045 20.3459 15.5296 20.471C15.6546 20.5961 15.8243 20.6663 16.0011 20.6663H19.3353C19.5121 20.6663 19.6818 20.5961 19.8068 20.471C19.9319 20.3459 20.0021 20.1763 20.0021 19.9995V10.5904C20.0019 10.497 19.9821 10.4048 19.944 10.3195C19.9058 10.2343 19.8502 10.158 19.7807 10.0956L12.4455 3.50463Z" fill="#BBBBC4"/>
</svg>
