<svg width="24" height="24" viewBox="0 0 24 24" fill="none" xmlns="http://www.w3.org/2000/svg">
<path fill-rule="evenodd" clip-rule="evenodd" d="M16.5911 1.25C18.4087 1.25 19.9584 1.79063 21.0605 2.82024C22.1676 3.85459 22.75 5.31505 22.75 7.00489V16.9951C22.75 18.6769 22.1718 20.131 21.0737 21.1638C19.9805 22.192 18.4429 22.7367 16.6396 22.7467L16.6355 22.7467L7.40843 22.75C7.40836 22.75 7.40801 22.75 7.40774 22L7.40843 22.75C5.59079 22.75 4.04062 22.2094 2.93884 21.1797C1.83203 20.1453 1.25 18.6848 1.25 16.9951V7.00489C1.25 5.32321 1.82778 3.86938 2.92571 2.83675C4.01868 1.80878 5.55599 1.26441 7.35915 1.25436L7.36334 1.25433L16.5911 1.25C16.5911 1.25 16.5907 1.25 16.5911 2V1.25ZM16.5911 2.75C16.591 2.75 16.5911 2.75 16.5911 2.75L7.36752 2.75433C7.3669 2.75434 7.36628 2.75434 7.36566 2.75434C5.85741 2.76312 4.71368 3.21433 3.95338 3.92941C3.19772 4.64012 2.75 5.67734 2.75 7.00489V16.9951C2.75 18.3298 3.20127 19.3718 3.96305 20.0838C4.72986 20.8004 5.88424 21.25 7.40774 21.25L16.6313 21.2468C16.6319 21.2467 16.6325 21.2467 16.6331 21.2467C18.1413 21.238 19.2854 20.7865 20.046 20.0711C20.8021 19.3601 21.25 18.3225 21.25 16.9951V7.00489C21.25 5.67028 20.7985 4.6283 20.0364 3.91631C19.2693 3.19962 18.1145 2.75003 16.5911 2.75ZM6.94544 7.55165C6.94544 7.13743 7.28123 6.80165 7.69544 6.80165H11.0018C11.416 6.80165 11.7518 7.13743 11.7518 7.55165C11.7518 7.96586 11.416 8.30165 11.0018 8.30165H7.69544C7.28123 8.30165 6.94544 7.96586 6.94544 7.55165ZM6.9453 12.0892C6.9453 11.675 7.28108 11.3392 7.6953 11.3392H16.3602C16.7744 11.3392 17.1102 11.675 17.1102 12.0892C17.1102 12.5034 16.7744 12.8392 16.3602 12.8392H7.6953C7.28108 12.8392 6.9453 12.5034 6.9453 12.0892ZM6.9453 16.6372C6.9453 16.223 7.28108 15.8872 7.6953 15.8872H16.3602C16.7744 15.8872 17.1102 16.223 17.1102 16.6372C17.1102 17.0514 16.7744 17.3872 16.3602 17.3872H7.6953C7.28108 17.3872 6.9453 17.0514 6.9453 16.6372Z" fill="#6C5DD3"/>
</svg>
